<svg width="22" height="22" viewBox="0 0 22 22" fill="none" xmlns="http://www.w3.org/2000/svg">
<path fill-rule="evenodd" clip-rule="evenodd" d="M17.5311 18.6649C17.8398 19.109 17.73 19.7193 17.2859 20.028C16.9696 20.2478 16.6428 20.4502 16.3072 20.6346C15.8332 20.8951 15.2378 20.7221 14.9773 20.2481C14.7167 19.7741 14.8898 19.1787 15.3638 18.9182C15.6397 18.7665 15.9082 18.6002 16.168 18.4197C16.6121 18.111 17.2224 18.2208 17.5311 18.6649ZM1.00011 9.81887C1.54089 9.82931 1.97081 10.2762 1.96036 10.8169C1.95426 11.1332 1.96484 11.4489 1.99173 11.7626C2.03793 12.3014 1.63852 12.7757 1.09962 12.8219C0.560726 12.8681 0.0864067 12.4687 0.0402034 11.9299C0.00749261 11.5483 -0.00539294 11.1642 0.00204436 10.7791C0.0124871 10.2383 0.459337 9.80842 1.00011 9.81887ZM12.8232 20.9004C12.8694 21.4393 12.47 21.9136 11.9311 21.9598C11.5495 21.9925 11.1654 22.0054 10.7803 21.998C10.2395 21.9875 9.80957 21.5407 9.82 20.9999C9.83044 20.4592 10.2773 20.0293 10.8181 20.0397C11.1344 20.0458 11.4501 20.0352 11.7637 20.0083C12.3026 19.9621 12.777 20.3615 12.8232 20.9004ZM1.75192 14.976C2.22592 14.7155 2.82137 14.8885 3.08189 15.3625C3.23353 15.6384 3.39984 15.9069 3.58042 16.1667C3.88911 16.6108 3.77931 17.2211 3.33518 17.5298C2.89104 17.8385 2.28075 17.7287 1.97206 17.2845C1.75221 16.9682 1.54983 16.6415 1.36538 16.3059C1.10486 15.8319 1.27792 15.2365 1.75192 14.976ZM4.97871 19.0681C5.25813 18.605 5.86007 18.4561 6.32318 18.7355C6.45771 18.8167 6.59513 18.8949 6.73541 18.9699C6.87569 19.045 7.01697 19.116 7.15914 19.1829C7.64854 19.4132 7.85859 19.9966 7.62829 20.4859C7.398 20.9753 6.81457 21.1854 6.32517 20.9551C6.15258 20.8739 5.98122 20.7878 5.81126 20.6968C5.64131 20.6059 5.47464 20.5111 5.31131 20.4125C4.8482 20.1331 4.69929 19.5312 4.97871 19.0681Z" fill="#AAAAAA"/>
<path fill-rule="evenodd" clip-rule="evenodd" d="M15.9236 3.41833C11.7364 0.699173 6.1376 1.88916 3.41836 6.07627C3.12378 6.52987 2.51724 6.65879 2.06363 6.36421C1.61001 6.06963 1.48109 5.46311 1.77567 5.00951C5.08407 -0.0847853 11.8959 -1.53262 16.9904 1.7757C22.0848 5.08402 23.5327 11.8957 20.2243 16.99C19.3571 18.3253 18.2473 19.4118 16.9898 20.2272C16.5359 20.5214 15.9295 20.3921 15.6352 19.9382C15.341 19.4844 15.4703 18.878 15.9242 18.5838C16.9555 17.9151 17.867 17.0235 18.5816 15.9232C21.3008 11.7361 20.1108 6.13749 15.9236 3.41833Z" fill="#AAAAAA"/>
<path fill-rule="evenodd" clip-rule="evenodd" d="M1.10972 2.67092C1.64963 2.6386 2.11544 3.04996 2.15013 3.5897L2.28675 5.71531L4.45102 5.58578C4.99093 5.55347 5.45674 5.96482 5.49143 6.50456C5.52612 7.0443 5.11656 7.50805 4.57665 7.54036L1.63031 7.71669C0.982409 7.75547 0.423438 7.26184 0.381808 6.61415L0.194932 3.70671C0.16024 3.16697 0.569803 2.70323 1.10972 2.67092Z" fill="#AAAAAA"/>
<path fill-rule="evenodd" clip-rule="evenodd" d="M11.1144 4.83914C11.6553 4.83914 12.0937 5.27759 12.0937 5.81845V10.1513L15.3331 8.55133C15.818 8.31181 16.4053 8.51075 16.6449 8.99568C16.8844 9.48061 16.6855 10.0679 16.2005 10.3074L11.8307 12.4657C11.0497 12.8515 10.1351 12.2831 10.1351 11.412V5.81845C10.1351 5.27759 10.5735 4.83914 11.1144 4.83914Z" fill="#AAAAAA"/>
</svg>
