<svg width="14" height="12" viewBox="0 0 14 12" fill="none" xmlns="http://www.w3.org/2000/svg">
<path d="M7.00001 9.66667C7.83334 9.66667 8.54168 9.375 9.12501 8.79167C9.70834 8.20833 10 7.5 10 6.66667C10 5.83333 9.70834 5.125 9.12501 4.54167C8.54168 3.95833 7.83334 3.66667 7.00001 3.66667C6.16668 3.66667 5.45834 3.95833 4.87501 4.54167C4.29168 5.125 4.00001 5.83333 4.00001 6.66667C4.00001 7.5 4.29168 8.20833 4.87501 8.79167C5.45834 9.375 6.16668 9.66667 7.00001 9.66667ZM7.00001 8.33333C6.53334 8.33333 6.1389 8.17222 5.81668 7.85C5.49445 7.52778 5.33334 7.13333 5.33334 6.66667C5.33334 6.2 5.49445 5.80556 5.81668 5.48333C6.1389 5.16111 6.53334 5 7.00001 5C7.46668 5 7.86112 5.16111 8.18334 5.48333C8.50557 5.80556 8.66668 6.2 8.66668 6.66667C8.66668 7.13333 8.50557 7.52778 8.18334 7.85C7.86112 8.17222 7.46668 8.33333 7.00001 8.33333ZM1.66668 12C1.30001 12 0.986121 11.8694 0.72501 11.6083C0.463899 11.3472 0.333344 11.0333 0.333344 10.6667V2.66667C0.333344 2.3 0.463899 1.98611 0.72501 1.725C0.986121 1.46389 1.30001 1.33333 1.66668 1.33333H3.76668L4.60001 0.433333C4.72223 0.3 4.86945 0.194444 5.04168 0.116667C5.2139 0.0388889 5.39445 0 5.58334 0H8.41668C8.60557 0 8.78612 0.0388889 8.95834 0.116667C9.13057 0.194444 9.27779 0.3 9.40001 0.433333L10.2333 1.33333H12.3333C12.7 1.33333 13.0139 1.46389 13.275 1.725C13.5361 1.98611 13.6667 2.3 13.6667 2.66667V10.6667C13.6667 11.0333 13.5361 11.3472 13.275 11.6083C13.0139 11.8694 12.7 12 12.3333 12H1.66668ZM1.66668 10.6667H12.3333V2.66667H9.63334L8.41668 1.33333H5.58334L4.36668 2.66667H1.66668V10.6667Z" fill="url(#paint0_linear_7_203)"/>
<defs>
<linearGradient id="paint0_linear_7_203" x1="0.685196" y1="-1.87614e-08" x2="1.5434" y2="13.0034" gradientUnits="userSpaceOnUse">
<stop stop-color="#2E22AB"/>
<stop offset="0.392635" stop-color="#983ACA"/>
<stop offset="0.777359" stop-color="#F63FA3"/>
<stop offset="1" stop-color="#FFD363"/>
</linearGradient>
</defs>
</svg>
