<svg width="18" height="12" viewBox="0 0 18 12" fill="none" xmlns="http://www.w3.org/2000/svg">
<path d="M1 12C0.716667 12 0.479167 11.9042 0.2875 11.7125C0.0958333 11.5208 0 11.2833 0 11C0 10.7167 0.0958333 10.4792 0.2875 10.2875C0.479167 10.0958 0.716667 10 1 10H12C12.2833 10 12.5208 10.0958 12.7125 10.2875C12.9042 10.4792 13 10.7167 13 11C13 11.2833 12.9042 11.5208 12.7125 11.7125C12.5208 11.9042 12.2833 12 12 12H1ZM15.9 10.3L12.3 6.7C12.1 6.5 12 6.26667 12 6C12 5.73333 12.1 5.5 12.3 5.3L15.9 1.7C16.0833 1.51667 16.3167 1.425 16.6 1.425C16.8833 1.425 17.1167 1.51667 17.3 1.7C17.4833 1.88333 17.575 2.11667 17.575 2.4C17.575 2.68333 17.4833 2.91667 17.3 3.1L14.4 6L17.3 8.9C17.4833 9.08333 17.575 9.31667 17.575 9.6C17.575 9.88333 17.4833 10.1167 17.3 10.3C17.1167 10.4833 16.8833 10.575 16.6 10.575C16.3167 10.575 16.0833 10.4833 15.9 10.3ZM1 7C0.716667 7 0.479167 6.90417 0.2875 6.7125C0.0958333 6.52083 0 6.28333 0 6C0 5.71667 0.0958333 5.47917 0.2875 5.2875C0.479167 5.09583 0.716667 5 1 5H9C9.28333 5 9.52083 5.09583 9.7125 5.2875C9.90417 5.47917 10 5.71667 10 6C10 6.28333 9.90417 6.52083 9.7125 6.7125C9.52083 6.90417 9.28333 7 9 7H1ZM1 2C0.716667 2 0.479167 1.90417 0.2875 1.7125C0.0958333 1.52083 0 1.28333 0 1C0 0.716667 0.0958333 0.479167 0.2875 0.2875C0.479167 0.0958333 0.716667 0 1 0H12C12.2833 0 12.5208 0.0958333 12.7125 0.2875C12.9042 0.479167 13 0.716667 13 1C13 1.28333 12.9042 1.52083 12.7125 1.7125C12.5208 1.90417 12.2833 2 12 2H1Z" fill="white"/>
</svg>
