<svg width="12" height="12" viewBox="0 0 12 12" fill="none" xmlns="http://www.w3.org/2000/svg">
<path d="M9.11499 2.18502C8.97654 2.18502 8.84121 2.22607 8.72609 2.30299C8.61098 2.37991 8.52126 2.48923 8.46827 2.61714C8.41529 2.74505 8.40143 2.8858 8.42844 3.02158C8.45545 3.15737 8.52212 3.2821 8.62002 3.38C8.71791 3.47789 8.84264 3.54456 8.97843 3.57157C9.11421 3.59858 9.25496 3.58472 9.38287 3.53174C9.51078 3.47875 9.6201 3.38903 9.69702 3.27392C9.77394 3.15881 9.81499 3.02347 9.81499 2.88502C9.81499 2.69937 9.74124 2.52132 9.60997 2.39005C9.47869 2.25877 9.30064 2.18502 9.11499 2.18502ZM11.7983 3.59669C11.787 3.11269 11.6963 2.63384 11.53 2.17919C11.3817 1.79018 11.1508 1.43793 10.8533 1.14669C10.5645 0.847686 10.2114 0.61829 9.82082 0.475854C9.36737 0.304447 8.88799 0.211726 8.40332 0.201687C7.78499 0.166687 7.58666 0.166687 5.99999 0.166687C4.41332 0.166687 4.21499 0.166687 3.59666 0.201687C3.112 0.211726 2.63261 0.304447 2.17916 0.475854C1.7893 0.619732 1.43653 0.848931 1.14666 1.14669C0.847655 1.43554 0.618259 1.78861 0.475823 2.17919C0.304417 2.63264 0.211696 3.11203 0.201656 3.59669C0.166656 4.21502 0.166656 4.41335 0.166656 6.00002C0.166656 7.58669 0.166656 7.78502 0.201656 8.40335C0.211696 8.88802 0.304417 9.3674 0.475823 9.82085C0.618259 10.2114 0.847655 10.5645 1.14666 10.8534C1.43653 11.1511 1.7893 11.3803 2.17916 11.5242C2.63261 11.6956 3.112 11.7883 3.59666 11.7984C4.21499 11.8334 4.41332 11.8334 5.99999 11.8334C7.58666 11.8334 7.78499 11.8334 8.40332 11.7984C8.88799 11.7883 9.36737 11.6956 9.82082 11.5242C10.2114 11.3818 10.5645 11.1524 10.8533 10.8534C11.1521 10.5632 11.3832 10.2106 11.53 9.82085C11.6963 9.3662 11.787 8.88735 11.7983 8.40335C11.7983 7.78502 11.8333 7.58669 11.8333 6.00002C11.8333 4.41335 11.8333 4.21502 11.7983 3.59669ZM10.7483 8.33335C10.7441 8.70364 10.677 9.07051 10.55 9.41835C10.4569 9.67222 10.3073 9.9016 10.1125 10.0892C9.92328 10.282 9.69437 10.4313 9.44166 10.5267C9.09382 10.6537 8.72694 10.7208 8.35666 10.725C7.77332 10.7542 7.55749 10.76 6.02332 10.76C4.48916 10.76 4.27332 10.76 3.68999 10.725C3.30551 10.7322 2.92267 10.673 2.55832 10.55C2.3167 10.4497 2.09828 10.3008 1.91666 10.1125C1.72304 9.92512 1.57532 9.69555 1.48499 9.44169C1.34257 9.08886 1.26358 8.71365 1.25166 8.33335C1.25166 7.75002 1.21666 7.53419 1.21666 6.00002C1.21666 4.46585 1.21666 4.25002 1.25166 3.66669C1.25427 3.28814 1.32338 2.91299 1.45582 2.55835C1.55852 2.31214 1.71614 2.09265 1.91666 1.91669C2.09388 1.71612 2.31291 1.55683 2.55832 1.45002C2.91389 1.32171 3.28866 1.25465 3.66666 1.25169C4.24999 1.25169 4.46582 1.21669 5.99999 1.21669C7.53416 1.21669 7.74999 1.21669 8.33332 1.25169C8.70361 1.25593 9.07048 1.323 9.41832 1.45002C9.68341 1.5484 9.92133 1.70835 10.1125 1.91669C10.3036 2.09587 10.453 2.31495 10.55 2.55835C10.6796 2.91357 10.7467 3.28856 10.7483 3.66669C10.7775 4.25002 10.7833 4.46585 10.7833 6.00002C10.7833 7.53419 10.7775 7.75002 10.7483 8.33335ZM5.99999 3.00752C5.40838 3.00867 4.83038 3.18516 4.33904 3.51468C3.84769 3.8442 3.46504 4.31197 3.23944 4.85888C3.01384 5.40579 2.95541 6.00729 3.07154 6.5874C3.18766 7.1675 3.47313 7.70017 3.89187 8.11809C4.31061 8.53602 4.84383 8.82045 5.42416 8.93544C6.00449 9.05044 6.60588 8.99083 7.15235 8.76417C7.69882 8.5375 8.16584 8.15394 8.4944 7.66196C8.82296 7.16997 8.99832 6.59163 8.99832 6.00002C8.99909 5.60633 8.92203 5.21637 8.77155 4.85258C8.62107 4.48878 8.40015 4.15833 8.1215 3.88022C7.84285 3.60211 7.51196 3.38183 7.14787 3.23206C6.78378 3.08229 6.39368 3.00598 5.99999 3.00752ZM5.99999 7.94252C5.6158 7.94252 5.24024 7.8286 4.92079 7.61515C4.60135 7.40171 4.35238 7.09833 4.20535 6.74338C4.05833 6.38844 4.01986 5.99787 4.09481 5.62106C4.16977 5.24425 4.35477 4.89813 4.62644 4.62647C4.8981 4.3548 5.24422 4.1698 5.62103 4.09485C5.99784 4.01989 6.38841 4.05836 6.74335 4.20538C7.0983 4.35241 7.40168 4.60138 7.61512 4.92083C7.82856 5.24027 7.94249 5.61583 7.94249 6.00002C7.94249 6.25511 7.89225 6.50771 7.79463 6.74338C7.69701 6.97906 7.55392 7.1932 7.37355 7.37358C7.19317 7.55395 6.97903 7.69704 6.74335 7.79466C6.50768 7.89228 6.25508 7.94252 5.99999 7.94252Z" fill="#1F1F1F"/>
</svg>
