<svg width="14" height="14" viewBox="0 0 14 14" fill="none" xmlns="http://www.w3.org/2000/svg">
<mask id="mask0_7_126" style="mask-type:alpha" maskUnits="userSpaceOnUse" x="0" y="0" width="14" height="14">
<rect width="14" height="14" fill="#D9D9D9"/>
</mask>
<g mask="url(#mask0_7_126)">
<path d="M6.99999 12.6C5.94999 12.6 5.10416 12.4469 4.46249 12.1406C3.82083 11.8344 3.49999 11.4334 3.49999 10.9375C3.49999 10.7722 3.54131 10.6135 3.62395 10.4614C3.70659 10.3092 3.83055 10.1666 3.99583 10.0334C4.12222 9.95558 4.25833 9.93614 4.40416 9.97502C4.54999 10.0139 4.6618 10.0966 4.73958 10.2229C4.81736 10.3493 4.8368 10.483 4.79791 10.624C4.75902 10.765 4.67638 10.8743 4.54999 10.9521C4.62777 11.0882 4.92916 11.2219 5.45416 11.3531C5.97916 11.4844 6.49444 11.55 6.99999 11.55C7.50555 11.55 8.02083 11.4844 8.54583 11.3531C9.07083 11.2219 9.37222 11.0882 9.44999 10.9521C9.32361 10.8743 9.24097 10.765 9.20208 10.624C9.16319 10.483 9.18263 10.3493 9.26041 10.2229C9.33819 10.0966 9.44999 10.0139 9.59583 9.97502C9.74166 9.93614 9.87777 9.95558 10.0042 10.0334C10.1694 10.1666 10.2934 10.3092 10.376 10.4614C10.4587 10.6135 10.5 10.7722 10.5 10.9375C10.5 11.4334 10.1792 11.8344 9.53749 12.1406C8.89583 12.4469 8.04999 12.6 6.99999 12.6ZM7.01458 9.53752C7.93819 8.85697 8.63333 8.1594 9.09999 7.44482C9.56666 6.73023 9.79999 6.02736 9.79999 5.33621C9.79999 4.38343 9.49861 3.66423 8.89583 3.17861C8.29305 2.69289 7.6611 2.45002 6.99999 2.45002C6.33888 2.45002 5.70694 2.69357 5.10416 3.18065C4.50138 3.66764 4.19999 4.38878 4.19999 5.34409C4.19999 5.97166 4.43333 6.63787 4.89999 7.34273C5.36666 8.04759 6.07152 8.77919 7.01458 9.53752ZM6.99999 10.6021C6.89305 10.6021 6.78611 10.5851 6.67916 10.5511C6.57222 10.517 6.47499 10.4611 6.38749 10.3834C5.2986 9.50836 4.4868 8.64551 3.95208 7.79482C3.41735 6.94412 3.14999 6.12605 3.14999 5.34059C3.14999 4.69221 3.26666 4.12371 3.49999 3.63507C3.73333 3.14643 4.03472 2.73683 4.40416 2.40627C4.7736 2.07572 5.18665 1.82537 5.64331 1.65523C6.09996 1.48509 6.55204 1.40002 6.99956 1.40002C7.44707 1.40002 7.8993 1.48509 8.35624 1.65523C8.81319 1.82537 9.2257 2.07567 9.59379 2.40613C9.96197 2.73659 10.2634 3.14735 10.498 3.63842C10.7326 4.12949 10.85 4.69819 10.85 5.34452C10.85 6.12736 10.5826 6.94412 10.0479 7.79482C9.51319 8.64551 8.70138 9.50836 7.61249 10.3834C7.52499 10.4611 7.42777 10.517 7.32083 10.5511C7.21388 10.5851 7.10694 10.6021 6.99999 10.6021ZM7.00306 6.30002C7.29268 6.30002 7.53958 6.19692 7.74374 5.99071C7.94791 5.7845 8.04999 5.53659 8.04999 5.24696C8.04999 4.95734 7.94689 4.71044 7.74068 4.50627C7.53447 4.30211 7.28656 4.20002 6.99693 4.20002C6.70731 4.20002 6.46041 4.30454 6.25624 4.51357C6.05208 4.72259 5.94999 4.96808 5.94999 5.25002C5.94999 5.53197 6.0531 5.77745 6.25931 5.98648C6.46551 6.19551 6.71343 6.30002 7.00306 6.30002Z" fill="#1C1B1F"/>
</g>
</svg>
