<svg width="14" height="15" viewBox="0 0 14 15" fill="none" xmlns="http://www.w3.org/2000/svg">
<path d="M2.20001 7.79999L0.533343 6.13332C0.40001 5.99999 0.333344 5.84443 0.333344 5.66666C0.333344 5.48888 0.40001 5.33332 0.533343 5.19999L2.20001 3.53332C2.33334 3.39999 2.4889 3.33332 2.66668 3.33332C2.84445 3.33332 3.00001 3.39999 3.13334 3.53332L4.80001 5.19999C4.93334 5.33332 5.00001 5.48888 5.00001 5.66666C5.00001 5.84443 4.93334 5.99999 4.80001 6.13332L3.13334 7.79999C3.00001 7.93332 2.84445 7.99999 2.66668 7.99999C2.4889 7.99999 2.33334 7.93332 2.20001 7.79999ZM5.66668 14.6667C5.47779 14.6667 5.31945 14.6028 5.19168 14.475C5.0639 14.3472 5.00001 14.1889 5.00001 14V11.3333C4.44445 11.2889 3.89445 11.2278 3.35001 11.15C2.80557 11.0722 2.26112 10.9722 1.71668 10.85C1.52779 10.8055 1.37501 10.7 1.25834 10.5333C1.14168 10.3667 1.11112 10.1889 1.16668 9.99999C1.22223 9.8111 1.33612 9.67221 1.50834 9.58332C1.68057 9.49443 1.86112 9.47221 2.05001 9.51666C2.86112 9.70555 3.68057 9.83332 4.50834 9.89999C5.33612 9.96666 6.16668 9.99999 7.00001 9.99999C7.83334 9.99999 8.6639 9.96666 9.49168 9.89999C10.3195 9.83332 11.1389 9.70555 11.95 9.51666C12.1389 9.47221 12.3195 9.49443 12.4917 9.58332C12.6639 9.67221 12.7778 9.8111 12.8333 9.99999C12.8889 10.1889 12.8583 10.3667 12.7417 10.5333C12.625 10.7 12.4722 10.8055 12.2833 10.85C11.7389 10.9722 11.1945 11.0722 10.65 11.15C10.1056 11.2278 9.55556 11.2889 9.00001 11.3333V14C9.00001 14.1889 8.93612 14.3472 8.80834 14.475C8.68056 14.6028 8.52223 14.6667 8.33334 14.6667H5.66668ZM2.66668 6.39999L3.40001 5.66666L2.66668 4.93332L1.93334 5.66666L2.66668 6.39999ZM7.00001 4.66666C6.44445 4.66666 5.97223 4.47221 5.58334 4.08332C5.19445 3.69443 5.00001 3.22221 5.00001 2.66666C5.00001 2.1111 5.19445 1.63888 5.58334 1.24999C5.97223 0.861101 6.44445 0.666656 7.00001 0.666656C7.55557 0.666656 8.02779 0.861101 8.41668 1.24999C8.80556 1.63888 9.00001 2.1111 9.00001 2.66666C9.00001 3.22221 8.80556 3.69443 8.41668 4.08332C8.02779 4.47221 7.55557 4.66666 7.00001 4.66666ZM7.00001 9.33332C6.63334 9.33332 6.31945 9.20277 6.05834 8.94166C5.79723 8.68055 5.66668 8.36666 5.66668 7.99999C5.66668 7.63332 5.79723 7.31943 6.05834 7.05832C6.31945 6.79721 6.63334 6.66666 7.00001 6.66666C7.36668 6.66666 7.68057 6.79721 7.94168 7.05832C8.20279 7.31943 8.33334 7.63332 8.33334 7.99999C8.33334 8.36666 8.20279 8.68055 7.94168 8.94166C7.68057 9.20277 7.36668 9.33332 7.00001 9.33332ZM7.00001 3.33332C7.1889 3.33332 7.34723 3.26943 7.47501 3.14166C7.60279 3.01388 7.66668 2.85555 7.66668 2.66666C7.66668 2.47777 7.60279 2.31943 7.47501 2.19166C7.34723 2.06388 7.1889 1.99999 7.00001 1.99999C6.81112 1.99999 6.65279 2.06388 6.52501 2.19166C6.39723 2.31943 6.33334 2.47777 6.33334 2.66666C6.33334 2.85555 6.39723 3.01388 6.52501 3.14166C6.65279 3.26943 6.81112 3.33332 7.00001 3.33332ZM10.1833 7.66666L9.41668 6.33332C9.36112 6.23332 9.33334 6.12221 9.33334 5.99999C9.33334 5.87777 9.36112 5.76666 9.41668 5.66666L10.1833 4.33332C10.2389 4.22221 10.3167 4.13888 10.4167 4.08332C10.5167 4.02777 10.6278 3.99999 10.75 3.99999H12.25C12.3722 3.99999 12.4833 4.02777 12.5833 4.08332C12.6833 4.13888 12.7611 4.22221 12.8167 4.33332L13.5833 5.66666C13.6389 5.76666 13.6667 5.87777 13.6667 5.99999C13.6667 6.12221 13.6389 6.23332 13.5833 6.33332L12.8167 7.66666C12.7611 7.77777 12.6833 7.8611 12.5833 7.91666C12.4833 7.97221 12.3722 7.99999 12.25 7.99999H10.75C10.6278 7.99999 10.5167 7.97221 10.4167 7.91666C10.3167 7.8611 10.2389 7.77777 10.1833 7.66666ZM11.1333 6.66666H11.8667L12.2333 5.99999L11.8667 5.33332H11.1333L10.7667 5.99999L11.1333 6.66666Z" fill="url(#paint0_linear_7_113)"/>
<defs>
<linearGradient id="paint0_linear_7_113" x1="0.346516" y1="7.6701" x2="13.6734" y2="7.6701" gradientUnits="userSpaceOnUse">
<stop stop-color="#FF7304"/>
<stop offset="1" stop-color="#FB2A77"/>
</linearGradient>
</defs>
</svg>
