<svg width="22" height="20" viewBox="0 0 22 20" fill="none" xmlns="http://www.w3.org/2000/svg">
<path d="M21.8911 6.54445L20.7358 1.68889C20.4937 0.688889 19.6354 0 18.6341 0H3.35018C2.35986 0 1.49058 0.7 1.2595 1.68889L0.104133 6.54445C-0.159952 7.67778 0.0821256 8.83333 0.786352 9.74445C0.874381 9.86667 0.995419 9.95556 1.09445 10.0667V17.7778C1.09445 19 2.08477 20 3.29516 20H18.7001C19.9105 20 20.9008 19 20.9008 17.7778V10.0667C20.9999 9.96667 21.1209 9.86667 21.2089 9.75556C21.9132 8.84444 22.1662 7.67778 21.8911 6.54445ZM18.6011 2.21111L19.7565 7.06667C19.8665 7.53333 19.7675 8 19.4814 8.36667C19.3273 8.56667 18.9972 8.88889 18.447 8.88889C17.7758 8.88889 17.1926 8.34444 17.1156 7.62222L16.4774 2.22222L18.6011 2.21111ZM12.098 2.22222H14.2547L14.8489 7.24445C14.9039 7.67778 14.7719 8.11111 14.4858 8.43333C14.2437 8.72222 13.8916 8.88889 13.4404 8.88889C12.7032 8.88889 12.098 8.23333 12.098 7.43333V2.22222ZM7.1354 7.24445L7.74059 2.22222H9.89728V7.43333C9.89728 8.23333 9.29209 8.88889 8.47783 8.88889C8.10371 8.88889 7.7626 8.72222 7.49851 8.43333C7.22342 8.11111 7.09138 7.67778 7.1354 7.24445ZM2.23882 7.06667L3.35018 2.22222H5.51787L4.87967 7.62222C4.79164 8.34444 4.21946 8.88889 3.54824 8.88889C3.00907 8.88889 2.66796 8.56667 2.52491 8.36667C2.22782 8.01111 2.12878 7.53333 2.23882 7.06667ZM3.29516 17.7778V11.0778C3.38319 11.0889 3.46021 11.1111 3.54824 11.1111C4.50555 11.1111 5.37483 10.7111 6.01303 10.0556C6.67325 10.7222 7.55353 11.1111 8.55485 11.1111C9.51216 11.1111 10.3704 10.7111 11.0086 10.0778C11.6579 10.7111 12.5381 11.1111 13.5285 11.1111C14.4528 11.1111 15.333 10.7222 15.9932 10.0556C16.6315 10.7111 17.5007 11.1111 18.458 11.1111C18.5461 11.1111 18.6231 11.0889 18.7111 11.0778V17.7778H3.29516Z" fill="#FE4545"/>
</svg>
