<svg width="16" height="12" viewBox="0 0 16 12" fill="none" xmlns="http://www.w3.org/2000/svg">
<path d="M0.666656 9.46669C0.666656 9.08891 0.763879 8.74169 0.958323 8.42502C1.15277 8.10835 1.4111 7.86669 1.73332 7.70002C2.42221 7.35558 3.12221 7.09724 3.83332 6.92502C4.54443 6.7528 5.26666 6.66669 5.99999 6.66669C6.73332 6.66669 7.45555 6.7528 8.16666 6.92502C8.87777 7.09724 9.57777 7.35558 10.2667 7.70002C10.5889 7.86669 10.8472 8.10835 11.0417 8.42502C11.2361 8.74169 11.3333 9.08891 11.3333 9.46669V10C11.3333 10.3667 11.2028 10.6806 10.9417 10.9417C10.6805 11.2028 10.3667 11.3334 9.99999 11.3334H1.99999C1.63332 11.3334 1.31943 11.2028 1.05832 10.9417C0.797212 10.6806 0.666656 10.3667 0.666656 10V9.46669ZM14 11.3334H12.3C12.4222 11.1334 12.5139 10.9195 12.575 10.6917C12.6361 10.4639 12.6667 10.2334 12.6667 10V9.33335C12.6667 8.84447 12.5305 8.37502 12.2583 7.92502C11.9861 7.47502 11.6 7.08891 11.1 6.76669C11.6667 6.83335 12.2 6.94724 12.7 7.10835C13.2 7.26946 13.6667 7.46669 14.1 7.70002C14.5 7.92224 14.8055 8.16947 15.0167 8.44169C15.2278 8.71391 15.3333 9.01113 15.3333 9.33335V10C15.3333 10.3667 15.2028 10.6806 14.9417 10.9417C14.6805 11.2028 14.3667 11.3334 14 11.3334ZM5.99999 6.00002C5.26666 6.00002 4.63888 5.73891 4.11666 5.21669C3.59443 4.69447 3.33332 4.06669 3.33332 3.33335C3.33332 2.60002 3.59443 1.97224 4.11666 1.45002C4.63888 0.927798 5.26666 0.666687 5.99999 0.666687C6.73332 0.666687 7.3611 0.927798 7.88332 1.45002C8.40555 1.97224 8.66666 2.60002 8.66666 3.33335C8.66666 4.06669 8.40555 4.69447 7.88332 5.21669C7.3611 5.73891 6.73332 6.00002 5.99999 6.00002ZM12.6667 3.33335C12.6667 4.06669 12.4055 4.69447 11.8833 5.21669C11.3611 5.73891 10.7333 6.00002 9.99999 6.00002C9.87777 6.00002 9.72221 5.98613 9.53332 5.95835C9.34443 5.93058 9.18888 5.90002 9.06666 5.86669C9.36666 5.51113 9.59721 5.11669 9.75832 4.68335C9.91943 4.25002 9.99999 3.80002 9.99999 3.33335C9.99999 2.86669 9.91943 2.41669 9.75832 1.98335C9.59721 1.55002 9.36666 1.15558 9.06666 0.80002C9.22221 0.744465 9.37777 0.708354 9.53332 0.691687C9.68888 0.67502 9.84443 0.666687 9.99999 0.666687C10.7333 0.666687 11.3611 0.927798 11.8833 1.45002C12.4055 1.97224 12.6667 2.60002 12.6667 3.33335ZM1.99999 10H9.99999V9.46669C9.99999 9.34447 9.96943 9.23335 9.90832 9.13335C9.84721 9.03335 9.76666 8.95558 9.66666 8.90002C9.06666 8.60002 8.4611 8.37502 7.84999 8.22502C7.23888 8.07502 6.62221 8.00002 5.99999 8.00002C5.37777 8.00002 4.7611 8.07502 4.14999 8.22502C3.53888 8.37502 2.93332 8.60002 2.33332 8.90002C2.23332 8.95558 2.15277 9.03335 2.09166 9.13335C2.03055 9.23335 1.99999 9.34447 1.99999 9.46669V10ZM5.99999 4.66669C6.36666 4.66669 6.68055 4.53613 6.94166 4.27502C7.20277 4.01391 7.33332 3.70002 7.33332 3.33335C7.33332 2.96669 7.20277 2.6528 6.94166 2.39169C6.68055 2.13058 6.36666 2.00002 5.99999 2.00002C5.63332 2.00002 5.31943 2.13058 5.05832 2.39169C4.79721 2.6528 4.66666 2.96669 4.66666 3.33335C4.66666 3.70002 4.79721 4.01391 5.05832 4.27502C5.31943 4.53613 5.63332 4.66669 5.99999 4.66669Z" fill="url(#paint0_linear_7_178)"/>
<defs>
<linearGradient id="paint0_linear_7_178" x1="2.97142" y1="1.80954" x2="8.94959" y2="13.462" gradientUnits="userSpaceOnUse">
<stop stop-color="#5C6CC1"/>
<stop offset="0.494792" stop-color="#43A4F5"/>
<stop offset="0.953135" stop-color="#2BB5F6"/>
</linearGradient>
</defs>
</svg>
