<svg width="8" height="12" viewBox="0 0 8 12" fill="none" xmlns="http://www.w3.org/2000/svg">
<path d="M4.83125 11.075L1.24375 7.34167C1.19514 7.29306 1.15625 7.23229 1.12708 7.15938C1.09792 7.08646 1.08333 7.01111 1.08333 6.93333V6.58333C1.08333 6.41806 1.13924 6.27951 1.25104 6.16771C1.36285 6.0559 1.50139 6 1.66667 6H3.125C3.64028 6 4.08507 5.83229 4.45937 5.49687C4.83368 5.16146 5.05972 4.74583 5.1375 4.25H1.08333C0.918056 4.25 0.779514 4.1941 0.667708 4.08229C0.555903 3.97049 0.5 3.83194 0.5 3.66667C0.5 3.50139 0.555903 3.36285 0.667708 3.25104C0.779514 3.13924 0.918056 3.08333 1.08333 3.08333H4.9625C4.79722 2.74306 4.55174 2.46354 4.22604 2.24479C3.90035 2.02604 3.53333 1.91667 3.125 1.91667H1.08333C0.918056 1.91667 0.779514 1.86076 0.667708 1.74896C0.555903 1.63715 0.5 1.49861 0.5 1.33333C0.5 1.16806 0.555903 1.02951 0.667708 0.917708C0.779514 0.805903 0.918056 0.75 1.08333 0.75H6.91667C7.08194 0.75 7.22049 0.805903 7.33229 0.917708C7.4441 1.02951 7.5 1.16806 7.5 1.33333C7.5 1.49861 7.4441 1.63715 7.33229 1.74896C7.22049 1.86076 7.08194 1.91667 6.91667 1.91667H5.60417C5.74028 2.08194 5.86181 2.26181 5.96875 2.45625C6.07569 2.65069 6.15833 2.85972 6.21667 3.08333H6.91667C7.08194 3.08333 7.22049 3.13924 7.33229 3.25104C7.4441 3.36285 7.5 3.50139 7.5 3.66667C7.5 3.83194 7.4441 3.97049 7.33229 4.08229C7.22049 4.1941 7.08194 4.25 6.91667 4.25H6.31875C6.24097 5.07639 5.90069 5.7691 5.29792 6.32812C4.69514 6.88715 3.97083 7.16667 3.125 7.16667H2.70208L5.67708 10.2583C5.85208 10.4431 5.88854 10.6545 5.78646 10.8927C5.68437 11.1309 5.50694 11.25 5.25417 11.25C5.17639 11.25 5.10104 11.2354 5.02812 11.2063C4.95521 11.1771 4.88958 11.1333 4.83125 11.075Z" fill="#1F1F1F"/>
</svg>
