<svg width="32" height="28" viewBox="0 0 32 28" fill="none" xmlns="http://www.w3.org/2000/svg">
<rect width="32" height="28" rx="8" fill="#F5F6FB"/>
<rect width="32" height="28" rx="8" fill="url(#paint0_linear_1_1067)"/>
<mask id="mask0_1_1067" style="mask-type:alpha" maskUnits="userSpaceOnUse" x="8" y="6" width="16" height="16">
<rect x="8" y="6" width="16" height="16" fill="#D9D9D9"/>
</mask>
<g mask="url(#mask0_1_1067)">
<path d="M20.0008 20.5C19.4917 20.5 19.0587 20.3218 18.702 19.9653C18.3451 19.6088 18.1666 19.1759 18.1666 18.6667C18.1666 18.5834 18.1732 18.4973 18.1865 18.4082C18.1998 18.3189 18.2197 18.2367 18.2461 18.1615L13.3153 15.2743C13.1393 15.4496 12.9389 15.5865 12.7141 15.6852C12.4893 15.7839 12.2513 15.8333 12 15.8333C11.4907 15.8333 11.0578 15.6552 10.7013 15.2988C10.3448 14.9425 10.1666 14.5098 10.1666 14.0008C10.1666 13.4917 10.3448 13.0588 10.7013 12.702C11.0578 12.3451 11.4907 12.1667 12 12.1667C12.2513 12.1667 12.4893 12.2161 12.7141 12.3148C12.9389 12.4135 13.1393 12.5504 13.3153 12.7257L18.2461 9.8385C18.2197 9.76328 18.1998 9.68106 18.1865 9.59183C18.1732 9.50272 18.1666 9.41656 18.1666 9.33333C18.1666 8.82411 18.3448 8.39122 18.7011 8.03467C19.0575 7.67822 19.4901 7.5 19.9991 7.5C20.5082 7.5 20.9412 7.67817 21.298 8.0345C21.6548 8.39083 21.8333 8.8235 21.8333 9.3325C21.8333 9.84161 21.6551 10.2746 21.2986 10.6313C20.9421 10.9882 20.5092 11.1667 20 11.1667C19.7486 11.1667 19.5106 11.1173 19.2858 11.0185C19.061 10.9198 18.8606 10.7829 18.6846 10.6077L13.7538 13.4948C13.7802 13.5701 13.8001 13.6521 13.8135 13.741C13.8267 13.8299 13.8333 13.9158 13.8333 13.9987C13.8333 14.0816 13.8267 14.1679 13.8135 14.2577C13.8001 14.3474 13.7802 14.4299 13.7538 14.5052L18.6846 17.3923C18.8606 17.2171 19.061 17.0802 19.2858 16.9815C19.5106 16.8827 19.7486 16.8333 20 16.8333C20.5092 16.8333 20.9421 17.0115 21.2986 17.3678C21.6551 17.7242 21.8333 18.1568 21.8333 18.6658C21.8333 19.1749 21.6551 19.6079 21.2988 19.9647C20.9425 20.3216 20.5098 20.5 20.0008 20.5ZM20 10.1667C20.2316 10.1667 20.4284 10.0857 20.5903 9.92367C20.7523 9.76178 20.8333 9.565 20.8333 9.33333C20.8333 9.10167 20.7523 8.90489 20.5903 8.743C20.4284 8.581 20.2316 8.5 20 8.5C19.7683 8.5 19.5715 8.581 19.4096 8.743C19.2476 8.90489 19.1666 9.10167 19.1666 9.33333C19.1666 9.565 19.2476 9.76178 19.4096 9.92367C19.5715 10.0857 19.7683 10.1667 20 10.1667ZM12 14.8333C12.2316 14.8333 12.4284 14.7523 12.5903 14.5903C12.7523 14.4284 12.8333 14.2317 12.8333 14C12.8333 13.7683 12.7523 13.5716 12.5903 13.4097C12.4284 13.2477 12.2316 13.1667 12 13.1667C11.7683 13.1667 11.5715 13.2477 11.4096 13.4097C11.2476 13.5716 11.1666 13.7683 11.1666 14C11.1666 14.2317 11.2476 14.4284 11.4096 14.5903C11.5715 14.7523 11.7683 14.8333 12 14.8333ZM20 19.5C20.2316 19.5 20.4284 19.419 20.5903 19.257C20.7523 19.0951 20.8333 18.8983 20.8333 18.6667C20.8333 18.435 20.7523 18.2382 20.5903 18.0763C20.4284 17.9143 20.2316 17.8333 20 17.8333C19.7683 17.8333 19.5715 17.9143 19.4096 18.0763C19.2476 18.2382 19.1666 18.435 19.1666 18.6667C19.1666 18.8983 19.2476 19.0951 19.4096 19.257C19.5715 19.419 19.7683 19.5 20 19.5Z" fill="white"/>
</g>
<defs>
<linearGradient id="paint0_linear_1_1067" x1="0.0316139" y1="14.0069" x2="32.0162" y2="14.0069" gradientUnits="userSpaceOnUse">
<stop stop-color="#FF7304"/>
<stop offset="1" stop-color="#FB2A77"/>
</linearGradient>
</defs>
</svg>
