<svg width="12" height="10" viewBox="0 0 12 10" fill="none" xmlns="http://www.w3.org/2000/svg">
<path d="M11.2501 5.58403H10.0834C9.91814 5.58403 9.77959 5.52813 9.66779 5.41632C9.55598 5.30451 9.50008 5.16597 9.50008 5.00069C9.50008 4.83542 9.55598 4.69688 9.66779 4.58507C9.77959 4.47326 9.91814 4.41736 10.0834 4.41736H11.2501C11.4154 4.41736 11.5539 4.47326 11.6657 4.58507C11.7775 4.69688 11.8334 4.83542 11.8334 5.00069C11.8334 5.16597 11.7775 5.30451 11.6657 5.41632C11.5539 5.52813 11.4154 5.58403 11.2501 5.58403ZM8.68341 7.80069C8.78064 7.66458 8.90703 7.58681 9.06258 7.56736C9.21814 7.54792 9.36397 7.58681 9.50008 7.68403L10.4334 8.38403C10.5695 8.48125 10.6473 8.60764 10.6667 8.76319C10.6862 8.91875 10.6473 9.06458 10.5501 9.20069C10.4529 9.33681 10.3265 9.41458 10.1709 9.43403C10.0154 9.45347 9.86952 9.41458 9.73341 9.31736L8.80008 8.61736C8.66397 8.52014 8.58619 8.39375 8.56675 8.23819C8.5473 8.08264 8.58619 7.93681 8.68341 7.80069ZM10.4334 1.61736L9.50008 2.31736C9.36397 2.41458 9.21814 2.45347 9.06258 2.43403C8.90703 2.41458 8.78064 2.33681 8.68341 2.20069C8.58619 2.06458 8.5473 1.91875 8.56675 1.76319C8.58619 1.60764 8.66397 1.48125 8.80008 1.38403L9.73341 0.684028C9.86952 0.586806 10.0154 0.547917 10.1709 0.567361C10.3265 0.586806 10.4529 0.664583 10.5501 0.800694C10.6473 0.936806 10.6862 1.08264 10.6667 1.23819C10.6473 1.39375 10.5695 1.52014 10.4334 1.61736ZM1.91675 6.75069H1.33341C1.01258 6.75069 0.737929 6.63646 0.509456 6.40799C0.280984 6.17951 0.166748 5.90486 0.166748 5.58403V4.41736C0.166748 4.09653 0.280984 3.82187 0.509456 3.5934C0.737929 3.36493 1.01258 3.25069 1.33341 3.25069H3.66675L5.69383 2.02569C5.88828 1.90903 6.08515 1.90903 6.28446 2.02569C6.48376 2.14236 6.58341 2.3125 6.58341 2.53611V7.46528C6.58341 7.68889 6.48376 7.85903 6.28446 7.97569C6.08515 8.09236 5.88828 8.09236 5.69383 7.97569L3.66675 6.75069H3.08341V8.50069C3.08341 8.66597 3.02751 8.80451 2.91571 8.91632C2.8039 9.02812 2.66536 9.08403 2.50008 9.08403C2.3348 9.08403 2.19626 9.02812 2.08446 8.91632C1.97265 8.80451 1.91675 8.66597 1.91675 8.50069V6.75069ZM5.41675 6.42986V3.57153L3.98758 4.41736H1.33341V5.58403H3.98758L5.41675 6.42986ZM7.16675 6.95486V3.04653C7.42925 3.27986 7.64071 3.56424 7.80112 3.89965C7.96154 4.23507 8.04175 4.60208 8.04175 5.00069C8.04175 5.39931 7.96154 5.76632 7.80112 6.10174C7.64071 6.43715 7.42925 6.72153 7.16675 6.95486Z" fill="#1F1F1F"/>
</svg>
