<svg width="14" height="14" viewBox="0 0 14 14" fill="none" xmlns="http://www.w3.org/2000/svg">
<path d="M13.2667 8.50004L8.50001 13.2667C8.36668 13.4 8.21668 13.5 8.05001 13.5667C7.88334 13.6334 7.71668 13.6667 7.55001 13.6667C7.38334 13.6667 7.21668 13.6334 7.05001 13.5667C6.88334 13.5 6.73334 13.4 6.60001 13.2667L0.716677 7.38337C0.594455 7.26115 0.50001 7.11948 0.433343 6.95837C0.366677 6.79726 0.333344 6.62782 0.333344 6.45004V1.66671C0.333344 1.30004 0.463899 0.986152 0.72501 0.725041C0.986121 0.46393 1.30001 0.333374 1.66668 0.333374H6.45001C6.62779 0.333374 6.80001 0.369485 6.96668 0.441707C7.13334 0.51393 7.27779 0.611152 7.40001 0.733374L13.2667 6.61671C13.4 6.75004 13.4972 6.90004 13.5583 7.06671C13.6195 7.23337 13.65 7.40004 13.65 7.56671C13.65 7.73337 13.6195 7.89726 13.5583 8.05837C13.4972 8.21948 13.4 8.36671 13.2667 8.50004ZM7.55001 12.3334L12.3167 7.56671L6.43334 1.66671H1.66668V6.43337L7.55001 12.3334ZM3.33334 4.33337C3.61112 4.33337 3.84723 4.23615 4.04168 4.04171C4.23612 3.84726 4.33334 3.61115 4.33334 3.33337C4.33334 3.0556 4.23612 2.81948 4.04168 2.62504C3.84723 2.4306 3.61112 2.33337 3.33334 2.33337C3.05557 2.33337 2.81945 2.4306 2.62501 2.62504C2.43057 2.81948 2.33334 3.0556 2.33334 3.33337C2.33334 3.61115 2.43057 3.84726 2.62501 4.04171C2.81945 4.23615 3.05557 4.33337 3.33334 4.33337Z" fill="url(#paint0_linear_7_223)"/>
<defs>
<linearGradient id="paint0_linear_7_223" x1="2.42596" y1="1.76195" x2="11.0963" y2="14.0374" gradientUnits="userSpaceOnUse">
<stop stop-color="#FF7143"/>
<stop offset="0.494792" stop-color="#FFA827"/>
<stop offset="0.953135" stop-color="#FFC928"/>
</linearGradient>
</defs>
</svg>
