<svg width="12" height="12" viewBox="0 0 12 12" fill="none" xmlns="http://www.w3.org/2000/svg">
<path d="M6.58332 5.76663V3.66663C6.58332 3.50135 6.52742 3.36281 6.41562 3.251C6.30381 3.1392 6.16527 3.08329 5.99999 3.08329C5.83471 3.08329 5.69617 3.1392 5.58436 3.251C5.47256 3.36281 5.41666 3.50135 5.41666 3.66663V5.98538C5.41666 6.06315 5.43124 6.1385 5.46041 6.21142C5.48957 6.28433 5.53332 6.34996 5.59166 6.40829L7.51666 8.33329C7.6236 8.44024 7.75971 8.49371 7.92499 8.49371C8.09027 8.49371 8.22638 8.44024 8.33332 8.33329C8.44027 8.22635 8.49374 8.09024 8.49374 7.92496C8.49374 7.75968 8.44027 7.62357 8.33332 7.51663L6.58332 5.76663ZM5.99999 11.8333C5.19305 11.8333 4.43471 11.6802 3.72499 11.3739C3.01527 11.0677 2.39791 10.652 1.87291 10.127C1.34791 9.60204 0.932281 8.98468 0.626031 8.27496C0.319781 7.56524 0.166656 6.8069 0.166656 5.99996C0.166656 5.19302 0.319781 4.43468 0.626031 3.72496C0.932281 3.01524 1.34791 2.39788 1.87291 1.87288C2.39791 1.34788 3.01527 0.932251 3.72499 0.626001C4.43471 0.319751 5.19305 0.166626 5.99999 0.166626C6.80693 0.166626 7.56527 0.319751 8.27499 0.626001C8.98471 0.932251 9.60207 1.34788 10.1271 1.87288C10.6521 2.39788 11.0677 3.01524 11.3739 3.72496C11.6802 4.43468 11.8333 5.19302 11.8333 5.99996C11.8333 6.8069 11.6802 7.56524 11.3739 8.27496C11.0677 8.98468 10.6521 9.60204 10.1271 10.127C9.60207 10.652 8.98471 11.0677 8.27499 11.3739C7.56527 11.6802 6.80693 11.8333 5.99999 11.8333ZM5.99999 10.6666C7.29305 10.6666 8.39409 10.2121 9.30311 9.30308C10.2121 8.39406 10.6667 7.29302 10.6667 5.99996C10.6667 4.7069 10.2121 3.60586 9.30311 2.69683C8.39409 1.78781 7.29305 1.33329 5.99999 1.33329C4.70693 1.33329 3.60589 1.78781 2.69686 2.69683C1.78784 3.60586 1.33332 4.7069 1.33332 5.99996C1.33332 7.29302 1.78784 8.39406 2.69686 9.30308C3.60589 10.2121 4.70693 10.6666 5.99999 10.6666Z" fill="#AAAAAA"/>
</svg>
