<svg width="10" height="12" viewBox="0 0 10 12" fill="none" xmlns="http://www.w3.org/2000/svg">
<path d="M8.99805 6.08901V2.02794C8.99805 2.00434 8.97881 1.98556 8.95524 1.9869C8.71266 2.00065 7.49603 2.05863 6.77582 1.88551C6.03868 1.70831 5.06257 1.10656 4.90795 1.00939C4.89467 1.00105 4.87916 1.00089 4.86574 1.00902C4.70741 1.105 3.69625 1.70808 2.99805 1.88551C2.32264 2.05714 1.26648 2.00164 1.04121 1.98727C1.0175 1.98575 0.998047 2.0046 0.998047 2.02836V6.15799C0.998047 7.56343 1.70102 8.87572 2.87102 9.65441L4.86494 10.9815C4.87832 10.9904 4.89569 10.9906 4.9093 10.982L7.03571 9.64329C8.25704 8.87437 8.99805 7.53223 8.99805 6.08901Z" stroke="#09BC78" stroke-width="1.05"/>
<path d="M2.59766 5.79531L4.26043 7.37697C4.27111 7.38714 4.28799 7.38682 4.29828 7.37625L7.39766 4.19531" stroke="#09BC78" stroke-width="1.05" stroke-linecap="round"/>
</svg>
